# xmcd CD database file
#
# Track frame offsets:
#	150
#	25490
#	50659
#	71793
#	93926
#	123175
#	147313
#	172524
#
# Disc length: 2574 seconds
#
# Revision: 2
# Processed by: cddbd v1.5.2PL0 Copyright (c) Steve Scherf et al.
# Submitted via: CDex 1.51
#
DISCID=680a0c08
DTITLE=Grupo Niche - Me huele A Matrimónio
DYEAR=1986
DGENRE=Salsa
TTITLE0=Me Huele a Matrimónio
TTITLE1=Un Caso Social
TTITLE2=Bendita Seas
TTITLE3=Tongolele
TTITLE4=Ese Dia
TTITLE5=Para mi Negra un Son
TTITLE6=La Trampa
TTITLE7=La Rata Chillona
EXTD=YEAR: 1986
EXTT0=
EXTT1=
EXTT2=
EXTT3=
EXTT4=
EXTT5=
EXTT6=
EXTT7=
PLAYORDER=
